<svg width="42" height="42" viewBox="0 0 42 42" fill="none" xmlns="http://www.w3.org/2000/svg">
<rect width="42" height="42" rx="21" fill="#4D00FF"/>
<path d="M15.5875 22L18.4875 24.9C18.6709 25.0833 18.7625 25.3167 18.7625 25.6C18.7625 25.8833 18.6709 26.1167 18.4875 26.3C18.3042 26.4833 18.0709 26.575 17.7875 26.575C17.5042 26.575 17.2709 26.4833 17.0875 26.3L12.4875 21.7C12.3875 21.6 12.3167 21.4917 12.275 21.375C12.2334 21.2583 12.2125 21.1333 12.2125 21C12.2125 20.8667 12.2334 20.7417 12.275 20.625C12.3167 20.5083 12.3875 20.4 12.4875 20.3L17.0875 15.7C17.2709 15.5167 17.5042 15.425 17.7875 15.425C18.0709 15.425 18.3042 15.5167 18.4875 15.7C18.6709 15.8833 18.7625 16.1167 18.7625 16.4C18.7625 16.6833 18.6709 16.9167 18.4875 17.1L15.5875 20H27.7875V17C27.7875 16.7167 27.8834 16.4792 28.075 16.2875C28.2667 16.0958 28.5042 16 28.7875 16C29.0709 16 29.3084 16.0958 29.5 16.2875C29.6917 16.4792 29.7875 16.7167 29.7875 17V20C29.7875 20.55 29.5917 21.0208 29.2 21.4125C28.8084 21.8042 28.3375 22 27.7875 22H15.5875Z" fill="white"/>
</svg>
