<svg width="42" height="42" viewBox="0 0 42 42" fill="none" xmlns="http://www.w3.org/2000/svg">
<rect width="42" height="42" rx="21" fill="#4D00FF"/>
<path d="M13.2028 29.9723C12.8528 30.0556 12.5486 29.9681 12.2903 29.7098C12.032 29.4514 11.9445 29.1473 12.0278 28.7973L13.0278 24.0223L17.9778 28.9723L13.2028 29.9723ZM17.9778 28.9723L13.0278 24.0223L24.4778 12.5723C24.8611 12.1889 25.3361 11.9973 25.9028 11.9973C26.4695 11.9973 26.9445 12.1889 27.3278 12.5723L29.4278 14.6723C29.8111 15.0556 30.0028 15.5306 30.0028 16.0973C30.0028 16.6639 29.8111 17.1389 29.4278 17.5223L17.9778 28.9723ZM25.9028 13.9723L15.5528 24.3223L17.6778 26.4473L28.0278 16.0973L25.9028 13.9723Z" fill="white"/>
</svg>
